<svg id="Layer_5" enable-background="new 0 0 64 64" height="512" viewBox="0 0 64 64" width="512" xmlns="http://www.w3.org/2000/svg"><path d="m2 2h60v8h-60z" fill="#5cd6b3"/><path d="m2 10h60v32h-60z" fill="#ffeaa7"/><path d="m32 16v12c0 1.1-.9 2-2 2h-22c-1.1 0-2-.9-2-2v-12c0-1.1.9-2 2-2h22c1.1 0 2 .9 2 2z" fill="#ff826e"/><path d="m32.65 42c.87 1.82 1.35 3.86 1.35 6 0 7.73-6.27 14-14 14s-14-6.27-14-14c0-2.14.48-4.18 1.35-6 2.25-4.73 7.07-8 12.65-8s10.4 3.27 12.65 8z" fill="#e6e9ed"/><path d="m16 46h8c1.1 0 2 .9 2 2v8c0 1.1-.9 2-2 2h-8c-1.1 0-2-.9-2-2v-8c0-1.1.9-2 2-2z" fill="#fcd770"/><circle cx="20" cy="51" fill="#5cd6b3" r="2"/><path d="m62 54v8h-20v-8h2 2l2 3 3-3h9z" fill="#b27946"/><path d="m58 16v6c0 1.1-.9 2-2 2h-6v-4c0-.55-.22-1.05-.59-1.41-.36-.37-.86-.59-1.41-.59-1.1 0-2 .9-2 2v4h-6c-1.1 0-2-.9-2-2v-6c0-1.1.9-2 2-2h16c1.1 0 2 .9 2 2z" fill="#e6e9ed"/><path d="m58 35c0-.55.22-1.05.59-1.41.36-.37.86-.59 1.41-.59 1.1 0 2 .9 2 2v2.01 8.57c0 .94-.22 1.85-.63 2.69l-1.37 2.73v3h-9l-3 3-2-3h-2v-3l-2.04-2.73c-.63-.83-1.03-1.81-1.16-2.85l-.43-3.42-.21-1.72c-.11-.84-.4-1.65-.87-2.35l-1.03-1.54c-.17-.26-.26-.55-.26-.85 0 0 0 0 0-.01 0-.84.68-1.53 1.54-1.53 1.78 0 3.4.72 4.57 1.89s1.89 2.79 1.89 4.57v-16.46-4c0-1.1.9-2 2-2 .55 0 1.05.22 1.41.59.37.36.59.86.59 1.41v4 8c0-1.1.9-2 2-2 .55 0 1.05.22 1.41.59.37.36.59.86.59 1.41 0-1.1.9-2 2-2 .55 0 1.05.22 1.41.59.37.36.59.86.59 1.41z" fill="#f0d0b4"/><path d="m1 1v42h4.875c-.556 1.567-.875 3.245-.875 5 0 8.271 6.729 15 15 15s15-6.729 15-15c0-1.755-.319-3.433-.875-5h5.367l.318 2.543c.15 1.206.616 2.358 1.346 3.331l1.844 2.459v1.667h-2v10h22v-10h-2v-1.764l1.261-2.522c.484-.967.739-2.049.739-3.13v-8.574-2.01-34zm60 2v6h-58v-6zm-41 58c-7.168 0-13-5.832-13-13s5.832-13 13-13 13 5.832 13 13-5.832 13-13 13zm13.256-20c-2.52-4.752-7.513-8-13.256-8s-10.737 3.248-13.256 8h-3.744v-30h58v21.184c-.314-.112-.648-.184-1-.184s-.686.072-1 .184v-.184c0-1.654-1.346-3-3-3-.771 0-1.468.301-2 .78-.532-.48-1.229-.78-2-.78-.352 0-.686.072-1 .184v-4.184h5c1.654 0 3-1.346 3-3v-6c0-1.654-1.346-3-3-3h-16c-1.654 0-3 1.346-3 3v6c0 1.654 1.346 3 3 3h5v10.374c-.06-.064-.121-.128-.184-.19-1.408-1.409-3.281-2.184-5.273-2.184-1.402 0-2.543 1.138-2.543 2.535 0 .502.147.988.426 1.406l1.029 1.544c.381.571.627 1.233.712 1.914l.075.601zm11.744-21v3h-5c-.551 0-1-.449-1-1v-6c0-.551.449-1 1-1h16c.551 0 1 .449 1 1v6c0 .551-.449 1-1 1h-5v-3c0-1.654-1.346-3-3-3s-3 1.346-3 3zm16 41h-18v-6h2.465l2.38 3.569 3.569-3.569h9.586zm0-15.416c0 .771-.183 1.545-.528 2.235l-1.472 2.945v2.236h-8.414l-2.431 2.431-1.62-2.431h-1.535v-2.333l-2.244-2.993c-.521-.694-.854-1.518-.961-2.379l-.643-5.144c-.124-.988-.481-1.948-1.033-2.775l-1.029-1.544c-.059-.088-.09-.19-.09-.297 0-.3.239-.535.543-.535 1.458 0 2.828.567 3.858 1.599 1.031 1.03 1.598 2.4 1.598 3.858v3.543h2v-24c0-.551.449-1 1-1s1 .449 1 1v12 4h2v-4c0-.551.449-1 1-1s1 .449 1 1v4h2v-4c0-.551.449-1 1-1s1 .449 1 1v3 1h2v-1c0-.552.449-1 1-1s1 .448 1 1v2.01 8.574z"/><path d="m5 5h2v2h-2z"/><path d="m9 5h2v2h-2z"/><path d="m13 5h2v2h-2z"/><path d="m30 13h-22c-1.654 0-3 1.346-3 3v12c0 1.654 1.346 3 3 3h22c1.654 0 3-1.346 3-3v-12c0-1.654-1.346-3-3-3zm1 15c0 .551-.449 1-1 1h-22c-.551 0-1-.449-1-1v-12c0-.551.449-1 1-1h22c.551 0 1 .449 1 1z"/><path d="m28.819 49.801 1.96.398c.129-.634.202-1.283.217-1.931l-1.999-.049c-.013.532-.073 1.063-.178 1.582z"/><path d="m26.427 41.7c.42.429.799.9 1.126 1.402l1.676-1.092c-.399-.612-.861-1.188-1.374-1.711z"/><path d="m28.862 46.428 1.97-.348c-.127-.722-.328-1.434-.596-2.114l-1.861.732c.219.557.383 1.139.487 1.73z"/><path d="m13.573 41.7-1.428-1.4c-2.29 2.333-3.416 5.541-3.09 8.8l1.99-.199c-.267-2.668.655-5.292 2.528-7.201z"/><path d="m9.504 51.299c.24.766.565 1.507.967 2.201l1.731-1c-.328-.568-.594-1.173-.79-1.799z"/><path d="m25 45.184v-3.184c0-2.757-2.243-5-5-5s-5 2.243-5 5v3.184c-1.161.414-2 1.514-2 2.816v8c0 1.654 1.346 3 3 3h8c1.654 0 3-1.346 3-3v-8c0-1.302-.839-2.402-2-2.816zm-5-6.184c1.654 0 3 1.346 3 3v3h-6v-3c0-1.654 1.346-3 3-3zm5 17c0 .552-.449 1-1 1h-8c-.551 0-1-.448-1-1v-8c0-.552.449-1 1-1h8c.551 0 1 .448 1 1z"/><path d="m20 48c-1.654 0-3 1.346-3 3 0 1.302.839 2.402 2 2.816v2.184h2v-2.184c1.161-.414 2-1.514 2-2.816 0-1.654-1.346-3-3-3zm0 4c-.551 0-1-.448-1-1s.449-1 1-1 1 .448 1 1-.449 1-1 1z"/><path d="m9 17h2v2h-2z"/><path d="m13 17h16v2h-16z"/><path d="m9 21h20v2h-20z"/><path d="m9 25h8v2h-8z"/><path d="m19 25h2v2h-2z"/><path d="m23 25h2v2h-2z"/><path d="m27 25h2v2h-2z"/></svg>